<svg width="200" height="126" viewBox="0 0 200 126" fill="none" xmlns="http://www.w3.org/2000/svg">
<path d="M103.572 41.0089C103.286 30.812 103.029 22.2411 103.015 21.9656L102.972 21.4557H100.288L100.281 38.5354C100.288 49.938 100.213 55.6736 100.131 55.8494C100.011 56.1078 99.396 59.5423 99.396 59.5423C99.396 59.5423 98.8001 56.1078 98.6608 55.8494C98.5982 55.7181 98.5037 49.938 98.5109 38.5354L98.5037 21.4557H95.8198L95.777 21.8278C95.7555 22.0276 95.5057 30.6053 95.2202 40.8711L94.7062 59.5423L97.0475 61.7746L99.396 64L101.744 61.7746L104.086 59.5423L103.572 41.0089Z" fill="url(#paint0_linear_64_137)"/>
<path d="M109.004 17.811C108.811 17.625 108.383 17.5974 105.635 17.6043C103.907 17.6043 102.358 17.5699 102.194 17.5217C101.98 17.4528 101.623 17.1634 100.824 16.3917C99.7743 15.3789 99.7315 15.3514 99.396 15.3583C99.0605 15.3514 99.0177 15.3789 97.9684 16.3917C97.3188 17.0187 96.7977 17.4665 96.6549 17.5079C96.5265 17.5492 94.9775 17.5837 93.2143 17.5906C90.559 17.6043 89.9665 17.6388 89.8023 17.7972C89.4811 18.1073 88.8315 19.6575 88.8315 19.6575C88.8315 19.6575 92.0794 19.8022 99.3746 19.8022C105.142 19.8022 110.005 19.658 110.005 19.658C109.904 19.4631 109.244 18.0432 109.004 17.811Z" fill="url(#paint1_linear_64_137)"/>
<path d="M101.438 12.9055C101.252 9.72246 100.781 5.0512 100.631 4.90651C100.552 4.83073 98.2325 4.83762 98.154 4.9134C97.9969 5.06498 97.3902 11.4518 97.3117 13.8288L97.2831 14.6969L97.6043 14.4006C98.0754 13.9459 98.5823 13.7185 99.2175 13.6841C99.9385 13.6358 100.46 13.8081 101.066 14.2973L101.53 14.6624L101.438 12.9055Z" fill="url(#paint2_linear_64_137)"/>
<path d="M103.429 2.6191C103.329 2.37107 103.072 1.93013 102.865 1.64765C101.338 -0.44684 97.8113 -0.570856 96.0982 1.42718C95.6842 1.90946 95.1702 2.87403 95.2273 3.08072C95.2559 3.19096 103.443 3.25296 103.558 3.14273C103.586 3.11517 103.529 2.88092 103.429 2.6191Z" fill="url(#paint3_linear_64_137)"/>
<path fill-rule="evenodd" clip-rule="evenodd" d="M90.2733 20.7129C89.5602 20.263 86.9117 18.4667 86.6147 18.2232C86.4418 18.0858 86.6264 18.1583 88.253 18.8197C90.0685 19.5609 91.7827 20.1833 93.4509 20.695C95.0833 21.1974 98.1489 22.0212 98.2321 21.9748C98.3759 21.8947 98.1301 21.72 97.572 21.4954C96.1996 20.9552 94.016 19.8348 92.994 19.1383C91.9926 18.4595 90.1786 17.1136 90.2729 17.1195C90.3239 17.1203 90.7038 17.2495 91.1088 17.4036C94.0685 18.5395 99.7389 20.395 100.923 20.6211C103.617 21.1263 105.713 21.5943 106.482 21.8671C107.77 22.3177 108.32 22.5957 110.897 24.0711C111.239 24.2705 112.438 24.7413 113.084 24.9268L113.527 25.0599L113.156 25.1985C112.854 25.318 112.764 25.3874 112.686 25.5771C112.605 25.7783 112.621 25.8567 112.793 26.0432C113.337 26.6654 116.111 27.5249 117.648 27.5643C118.429 27.5844 118.703 27.5874 118.865 27.719C118.956 27.7929 119.012 27.9074 119.102 28.0884C119.505 28.8964 119.459 30.3046 118.984 31.6017C118.739 32.2545 117.606 33.9373 117.192 34.2561C117.027 34.3865 116.884 34.4666 116.875 34.452C116.862 34.4301 116.824 34.13 116.786 33.7808C116.661 32.594 116.212 31.9777 114.897 31.2302C113.437 30.4079 111.892 30.0516 109.171 29.922C107.753 29.8455 106.2 29.6785 105.509 29.5183C105.195 29.4496 104.33 29.1332 103.591 28.8246C101.292 27.8658 98.8443 27.3501 96.82 27.4069C95.499 27.4419 94.1548 27.6067 93.1567 27.861C92.2625 28.0866 92.1824 28.1215 90.575 29.027C88.7481 30.0548 88.2816 30.4219 87.4066 31.523C85.7666 33.6055 85.6643 36.5549 87.1644 38.7086C88.3987 40.4771 91.773 41.7215 95.1669 42.2511L95.066 45.4656C93.8724 45.4453 92.293 45.3055 91.1043 45.0928L89.9718 44.8863L89.7675 45.6917C89.6622 46.1399 89.5512 46.4939 89.5273 46.4877C89.5034 46.4816 89.0832 46.0827 88.5879 45.6089C87.6124 44.6527 86.3486 43.4677 86.2889 43.4523C86.2726 43.4419 85.9904 43.8134 85.6782 44.2698C85.3584 44.7304 85.0674 45.0873 85.0197 45.075C84.96 45.0596 84.1581 42.7407 83.6091 40.9626C83.5509 40.781 83.5433 40.785 82.5041 41.335L81.4587 41.8882L81.6824 39.6308C81.8046 38.3844 81.9026 37.3169 81.8947 37.2532C81.8825 37.1821 81.695 37.1892 81.3594 37.2691C80.3299 37.5214 79.7256 37.6244 79.7284 37.5449C79.7293 37.4957 80.1706 36.5973 80.7001 35.5427C81.2414 34.4911 81.6688 33.62 81.6601 33.6054C81.6513 33.5908 81.1838 33.5007 80.6175 33.3975C80.0513 33.2943 79.6053 33.1728 79.6257 33.1225C79.6385 33.0764 80.4297 32.392 81.3756 31.6117C82.3214 30.8314 83.1246 30.1501 83.1525 30.0956C83.1956 30.0326 82.799 29.8251 82.0878 29.53C81.0269 29.089 80.8009 28.9811 80.9971 28.9887C81.0481 28.9895 81.907 28.6374 82.9292 28.2042C83.6229 27.9108 84.3095 27.6214 84.744 27.4383C84.945 27.3535 85.092 27.2916 85.1608 27.2625C85.3706 27.1748 85.5339 27.0935 85.5295 27.0862C85.5208 27.0716 85.1443 26.7458 84.6895 26.3565C84.2422 25.963 83.896 25.6203 83.9175 25.5888C83.951 25.5605 85.0222 25.4115 86.3047 25.2616C87.5916 25.119 88.6433 24.9712 88.6573 24.9439C88.6593 24.9136 88.4357 24.5903 88.1587 24.2285C87.8785 23.8782 87.6549 23.5549 87.6601 23.513C87.6697 23.4784 88.4402 23.4678 89.3691 23.4858C90.3024 23.511 91.3364 23.5192 91.6755 23.4957C92.2531 23.4661 94.3474 23.0878 94.3742 23.0144C94.373 22.9956 93.6428 22.5845 92.7324 22.1082C91.8295 21.6278 90.7179 21.0007 90.2733 20.7129ZM108.69 25.019C108.39 24.923 107.737 24.6737 107.238 24.4645C106.17 24.0276 105.913 24.0538 106.227 24.5797C106.328 24.7477 106.522 24.8536 106.986 25.0043C107.497 25.1674 108.679 25.3558 109.192 25.3526C109.442 25.3494 109.21 25.1966 108.69 25.019Z" fill="white"/>
<path d="M103.644 44.7837C103.695 44.7785 103.794 44.7891 103.846 44.7837C108.505 44.2909 110.75 44.4194 113.284 45.0812C115.542 45.6834 116.913 46.5259 118.658 48.3972C119.019 48.7806 119.334 49.0722 119.365 49.0553C119.448 49.0089 118.465 47.1804 118.01 46.5379C117.383 45.641 117.043 45.3433 115.771 44.5328C114.12 43.476 113.597 43.2418 111.823 42.7892C109.244 42.1224 107.195 41.969 104.212 42.2099C103.852 42.2393 103.947 42.2511 103.585 42.2099L103.644 44.7837Z" fill="white"/>
<path d="M12.1875 112.016C9.51562 112.016 6.625 112.344 3.51562 113C3.85938 110.703 4.10938 108.258 4.26562 105.664C4.4375 103.055 4.52344 100.266 4.52344 97.2969C4.52344 93.0781 4.4375 89.5625 4.26562 86.75C4.10938 83.9375 3.90625 81.8438 3.65625 80.4688L3.51562 79.6719C4.46875 79.5625 5.41406 79.3438 6.35156 79.0156C7.30469 78.6719 8.32812 78.1953 9.42188 77.5859C10.4062 77.9141 11.3672 78.1953 12.3047 78.4297C13.2422 78.6641 14.3125 78.7812 15.5156 78.7812C17.5625 78.7812 19.8047 78.3828 22.2422 77.5859C21.1016 79.6484 20.4766 81.6172 20.3672 83.4922C17.4609 83.3359 15.0312 82.5469 13.0781 81.125C12.1406 80.4062 11.3594 79.7969 10.7344 79.2969C10.125 78.7812 9.66406 78.3672 9.35156 78.0547C8.69531 82.3516 8.36719 87.5156 8.36719 93.5469V93.9688C12.6797 93.75 16.3672 92.8672 19.4297 91.3203C19.1172 91.9141 18.8047 92.7266 18.4922 93.7578C18.1953 94.7734 17.9844 95.9297 17.8594 97.2266L17.2266 97.0391C15.4453 96.5078 12.8125 96.2422 9.32812 96.2422H8.39062C8.45312 102.648 8.71094 107.102 9.16406 109.602C9.63281 109.727 10 109.789 10.2656 109.789C15.6406 109.789 20.0938 108.891 23.625 107.094C23.3438 107.641 23.0469 108.383 22.7344 109.32C22.4375 110.242 22.2109 111.469 22.0547 113L21.4453 112.812C19.7422 112.281 16.6562 112.016 12.1875 112.016ZM19.1541 88.6016C19.3884 88.5859 19.7087 88.5312 20.115 88.4375C20.5212 88.3438 20.9822 88.2109 21.4978 88.0391C22.0134 87.8672 22.5603 87.6562 23.1384 87.4062C23.7166 87.1562 24.3025 86.8594 24.8962 86.5156L25.0837 87.125C25.3962 88.1406 25.9744 89.4375 26.8181 91.0156C27.6619 92.5781 28.8181 94.4375 30.2869 96.5938C32.2869 93.6562 33.8103 91.3828 34.8572 89.7734C35.9197 88.1641 36.5212 87.2031 36.6619 86.8906L36.8259 86.5156C37.4822 86.9688 38.0994 87.3047 38.6775 87.5234C39.2556 87.7422 39.7322 87.8828 40.1072 87.9453C38.1853 89.8203 35.3103 93.2812 31.4822 98.3281L32.2556 99.4297C36.8494 105.852 39.9275 109.664 41.49 110.867C39.2869 111.336 37.3806 112.047 35.7712 113L35.5603 112.438C34.9822 111.062 32.8728 107.609 29.2322 102.078L28.9744 101.68C24.9587 107.211 22.7869 110.875 22.4587 112.672L22.2947 113C21.4041 112.375 20.3181 111.883 19.0369 111.523C20.3806 110.508 23.3337 106.695 27.8962 100.086C24.5681 95.1328 21.6541 91.3047 19.1541 88.6016ZM48.8081 113.094C47.8862 112.875 46.7769 112.422 45.48 111.734C44.1831 111.031 43.0112 110.18 41.9644 109.18C40.5894 107.852 39.6284 106.406 39.0816 104.844C38.5503 103.547 38.2144 101.906 38.0737 99.9219V99.8281C38.0737 98.1562 38.4566 96.4297 39.2222 94.6484C39.8003 93.2891 40.5737 92.0781 41.5425 91.0156C41.9487 90.5781 42.4175 90.1562 42.9487 89.75L47.8706 86.5156C48.6987 86.7969 50.1128 87.4531 52.1128 88.4844C53.5659 89.2344 54.9722 90.3594 56.3316 91.8594C57.3316 93.4219 57.8316 94.8672 57.8316 96.1953C57.8316 96.2266 57.8316 96.2656 57.8316 96.3125C57.5972 98.2188 56.7222 99.75 55.2066 100.906C52.6284 102.875 49.4175 103.875 45.5737 103.906C50.4175 102.25 53.2847 100.336 54.1753 98.1641C54.3628 97.7109 54.4566 97.2656 54.4566 96.8281C54.4566 96.8125 54.4566 96.7969 54.4566 96.7812C54.4566 96.7656 54.4566 96.75 54.4566 96.7344C54.4566 96.0781 54.1831 95.4375 53.6362 94.8125C52.7769 93.7969 51.5425 92.8906 49.9331 92.0938C47.1831 90.7344 44.9487 89.9688 43.23 89.7969C42.6362 90.7656 42.0972 92.2344 41.6128 94.2031C41.2378 95.7344 41.0503 97.0625 41.0503 98.1875C41.0503 98.7188 41.0894 99.2266 41.1675 99.7109C41.3862 101.102 41.9644 102.5 42.9019 103.906C43.8706 105.344 45.2222 106.477 46.9566 107.305C48.4566 108.023 50.7612 108.734 53.8706 109.438L53.8941 109.414C54.1441 109.023 54.2691 108.344 54.2691 107.375C54.2691 106.766 54.1675 105.969 53.9644 104.984L57.2925 106.297C56.8706 107.25 56.1831 108.109 55.23 108.875C54.5112 109.453 54.1519 109.75 54.1519 109.766L48.8081 113.094ZM57.9544 113C58.2981 110.656 58.5481 108.18 58.7044 105.57C58.8763 102.961 58.9622 100.188 58.9622 97.25C58.9466 93.125 58.8606 89.6641 58.7044 86.8672C58.5638 84.0703 58.3606 81.9375 58.095 80.4688L57.9544 79.6719C58.9075 79.5625 59.8528 79.3438 60.7903 79.0156C61.7434 78.6719 62.7669 78.1953 63.8606 77.5859C63.1575 81.9922 62.8059 87.6406 62.8059 94.5312C62.8059 95.2812 62.8059 96 62.8059 96.6875C62.8216 97.3594 62.8372 98.0234 62.8528 98.6797C64.2903 97.0234 66.3606 94.2266 69.0638 90.2891C71.0638 87.3359 72.5716 85 73.5872 83.2812C74.6028 81.5469 75.1106 80.4141 75.1106 79.8828V79.5781C77.595 79.125 79.2981 78.4609 80.22 77.5859C77.8763 80.1172 74.7044 84.5781 70.7044 90.9688C71.1106 92.3125 71.5716 93.6484 72.0872 94.9766C72.6028 96.2891 73.2356 97.7188 73.9856 99.2656C74.7513 100.812 75.6731 102.531 76.7513 104.422C77.845 106.297 79.1731 108.461 80.7356 110.914C79.7825 111.023 78.8294 111.25 77.8763 111.594C76.9388 111.922 75.9231 112.391 74.8294 113C73.9388 109.75 72.8841 106.672 71.6653 103.766C70.4622 100.859 69.0169 98.2344 67.3294 95.8906C65.6575 98.4062 64.2278 101.055 63.0403 103.836C63.1184 105.211 63.2044 106.406 63.2981 107.422C63.3919 108.438 63.5169 109.297 63.6731 110L63.8606 110.844C63.1888 110.922 62.5481 111.047 61.9388 111.219C61.345 111.375 60.7903 111.555 60.2747 111.758C59.7747 111.961 59.3216 112.172 58.9153 112.391C58.5247 112.609 58.2044 112.812 57.9544 113ZM80.2022 93.3125C80.6084 92.375 81.2959 91.5156 82.2647 90.7344L83.3662 89.8438L88.71 86.5156C89.6006 86.75 90.7022 87.2031 92.0147 87.875C93.2647 88.5156 94.4366 89.3672 95.5303 90.4297C96.9053 91.7734 97.8741 93.2188 98.4366 94.7656C99.0459 96.2656 99.3741 97.9062 99.4209 99.6875C99.5303 104.125 99.8194 107.562 100.288 110L100.476 110.844C99.4131 110.969 98.46 111.188 97.6162 111.5C96.2569 112 95.2412 112.5 94.5694 113C95.1631 108.781 95.46 104.586 95.46 100.414C95.46 100.211 95.46 100 95.46 99.7812C95.46 98 95.1787 96.6406 94.6162 95.7031C93.6319 94.25 92.2725 93.1172 90.5381 92.3047C88.9756 91.5703 86.6631 90.8672 83.6006 90.1953C83.3506 90.5859 83.2256 91.2656 83.2256 92.2344C83.2256 92.8438 83.3272 93.6406 83.5303 94.625L80.2022 93.3125ZM89.6241 113C88.7334 112.688 87.3194 112.031 85.3819 111.031C83.9287 110.281 82.5225 109.156 81.1631 107.656C80.1631 106.094 79.6631 104.648 79.6631 103.32C79.6631 103.289 79.6631 103.25 79.6631 103.203C79.8975 101.312 80.7725 99.7812 82.2881 98.6094C84.8506 96.6406 88.0616 95.6406 91.9209 95.6094C87.1553 97.3594 84.3975 99.3125 83.6475 101.469C83.4912 101.922 83.4131 102.359 83.4131 102.781C83.4131 103.5 83.6631 104.141 84.1631 104.703C85.5069 106.062 86.6397 106.969 87.5616 107.422C90.3897 108.812 92.7178 109.594 94.5459 109.766L89.6241 113ZM100.575 113C101.247 108.312 101.583 103.062 101.583 97.25C101.583 96.3906 101.575 95.5469 101.559 94.7188C101.434 87.875 101.153 83.125 100.716 80.4688L100.575 79.6719C102.481 79.4531 104.395 78.7891 106.317 77.6797L106.481 77.5859C105.778 82.0234 105.427 87.3984 105.427 93.7109C105.427 93.9766 105.427 94.25 105.427 94.5312C105.427 102.031 105.716 107.188 106.294 110L106.481 110.844C105.419 110.969 104.466 111.188 103.622 111.5C102.262 112 101.247 112.5 100.575 113ZM107.753 85.25C108.049 83.9688 108.198 82.625 108.198 81.2188C108.198 80.7969 108.182 80.375 108.151 79.9531C108.135 79.5312 108.096 79.1094 108.034 78.6875L107.893 78.1953C109.909 77.9922 111.948 77.2969 114.01 76.1094L114.174 76.0156C113.924 76.9062 113.799 78.1797 113.799 79.8359C113.799 80.2734 113.815 80.7578 113.846 81.2891C113.893 81.8047 113.956 82.375 114.034 83C113.393 83.0781 112.753 83.2031 112.112 83.375C111.487 83.5312 110.893 83.7188 110.331 83.9375C109.784 84.1406 109.284 84.3594 108.831 84.5938C108.393 84.8281 108.034 85.0469 107.753 85.25ZM108.151 113C108.448 110.641 108.667 108.5 108.807 106.578C108.963 104.641 109.042 102.891 109.042 101.328C109.042 100.062 109.026 98.8828 108.995 97.7891C108.979 96.6797 108.94 95.6328 108.878 94.6484C108.815 93.6484 108.729 92.6875 108.62 91.7656C108.526 90.8438 108.409 89.9141 108.268 88.9766L108.151 88.6016C109.104 88.4922 110.049 88.2734 110.987 87.9453C111.94 87.6016 112.909 87.1562 113.893 86.6094L114.057 86.5156C113.276 89.2188 112.885 92.9766 112.885 97.7891V98.6094C112.885 103 113.213 106.797 113.87 110L114.057 110.844C113.385 110.922 112.745 111.047 112.135 111.219C111.542 111.375 110.987 111.555 110.471 111.758C109.971 111.961 109.518 112.172 109.112 112.391C108.721 112.609 108.401 112.812 108.151 113ZM116.571 113C116.914 110.609 117.172 108.352 117.344 106.227C117.516 104.102 117.602 102.094 117.602 100.203C117.602 97.9062 117.508 95.7578 117.321 93.7578C117.149 91.7578 116.946 89.9219 116.711 88.25L116.571 87.4531C117.524 87.3438 118.469 87.125 119.407 86.7969C120.36 86.4531 121.328 86.0078 122.313 85.4609L122.477 85.3672C122.118 87.7422 121.844 89.875 121.657 91.7656C121.485 93.6406 121.399 95.3125 121.399 96.7812C121.399 96.9844 121.399 97.1797 121.399 97.3672C121.399 97.5547 121.407 97.7344 121.422 97.9062C121.578 101.188 121.711 103.805 121.821 105.758C121.946 107.711 122.063 109.031 122.172 109.719L123.25 110.258C124.797 110.664 126.235 110.867 127.563 110.867C128.953 110.867 130.243 110.656 131.43 110.234C132.618 109.812 133.711 109.188 134.711 108.359C135.321 107.469 135.766 106.602 136.047 105.758C136.344 104.898 136.493 104.047 136.493 103.203C136.493 101.438 136.039 99.9688 135.133 98.7969C134.227 97.625 132.914 96.8516 131.196 96.4766C130.805 96.3984 130.422 96.3594 130.047 96.3594C128.172 96.3594 125.649 97.1719 122.477 98.7969L125.922 92.8203C129.157 91.3516 130.774 89.0078 130.774 85.7891C130.774 84.6641 130.352 83.7344 129.508 83C128.68 82.2656 127.438 81.8984 125.782 81.8984C125 81.9141 124.133 82.0156 123.18 82.2031C122.227 82.375 121.235 82.6406 120.203 83C119.188 83.3594 118.149 83.8125 117.086 84.3594C116.039 84.9062 115.024 85.5547 114.039 86.3047L115.586 80.1641C116.711 79.7109 117.586 79.3672 118.211 79.1328C118.836 78.8828 119.235 78.7266 119.407 78.6641C120.532 78.3047 121.649 78.0312 122.758 77.8438C123.868 77.6406 124.961 77.5391 126.039 77.5391C127.133 77.5391 128.086 77.6406 128.899 77.8438C129.711 78.0469 130.391 78.3281 130.938 78.6875C132.11 79.4844 132.985 80.375 133.563 81.3594C134.141 82.3438 134.43 83.3984 134.43 84.5234C134.414 85.3984 134.227 86.2422 133.868 87.0547C133.524 87.8516 133.078 88.5859 132.532 89.2578C131.985 89.9297 131.375 90.5234 130.703 91.0391C130.047 91.5391 129.399 91.9141 128.758 92.1641C129.024 92.1328 129.289 92.1094 129.555 92.0938C129.821 92.0625 130.078 92.0469 130.328 92.0469C131.532 92.0469 132.625 92.2031 133.61 92.5156C134.61 92.8281 135.5 93.2422 136.282 93.7578C137.063 94.2734 137.743 94.875 138.321 95.5625C138.899 96.2344 139.375 96.9375 139.75 97.6719C140.125 98.4062 140.407 99.1406 140.594 99.875C140.782 100.609 140.875 101.297 140.875 101.938C140.875 102.734 140.805 103.461 140.664 104.117C140.524 104.773 140.391 105.281 140.266 105.641C139.813 107 139.211 108.156 138.461 109.109C137.727 110.062 136.899 110.836 135.977 111.43C135.071 112.023 134.086 112.453 133.024 112.719C131.977 112.984 130.907 113.117 129.813 113.117C129.157 113.117 128.625 113.102 128.219 113.07C127.813 113.039 127.586 113.016 127.539 113L122.477 110.844C121.821 110.922 121.188 111.047 120.578 111.219C119.985 111.375 119.43 111.555 118.914 111.758C118.414 111.961 117.961 112.172 117.555 112.391C117.149 112.609 116.821 112.812 116.571 113ZM140.248 88.6719C140.904 88.6094 141.529 88.5 142.123 88.3438C142.732 88.1719 143.287 87.9844 143.787 87.7812C144.303 87.5625 144.756 87.3438 145.147 87.125C145.553 86.9062 145.889 86.7031 146.154 86.5156C145.545 90.625 145.24 94.5859 145.24 98.3984C145.272 99.0703 145.295 99.6719 145.311 100.203C145.342 100.734 145.381 101.219 145.428 101.656C145.475 102.078 145.553 102.469 145.662 102.828C145.772 103.172 145.92 103.5 146.107 103.812C146.561 104.484 147.076 105.086 147.654 105.617C148.248 106.148 148.975 106.633 149.834 107.07C150.693 107.492 151.709 107.891 152.881 108.266C154.068 108.625 155.49 108.977 157.147 109.32C157.209 108.742 157.248 107.828 157.264 106.578C157.295 105.312 157.311 103.695 157.311 101.727V100.906C157.279 98.7188 157.193 96.6797 157.053 94.7891C156.928 92.8828 156.686 91.125 156.326 89.5156L156.139 88.6719C156.795 88.6094 157.42 88.5 158.014 88.3438C158.623 88.1719 159.178 87.9844 159.678 87.7812C160.193 87.5625 160.647 87.3438 161.037 87.125C161.443 86.9062 161.779 86.7031 162.045 86.5156C161.748 88.875 161.522 91.0234 161.365 92.9609C161.225 94.8828 161.154 96.625 161.154 98.1875C161.154 99.4688 161.162 100.656 161.178 101.75C161.209 102.844 161.248 103.891 161.295 104.891C161.357 105.875 161.436 106.828 161.529 107.75C161.639 108.672 161.772 109.602 161.928 110.539L162.045 110.914C161.092 111.023 160.139 111.25 159.186 111.594C158.248 111.922 157.287 112.359 156.303 112.906L156.139 113C156.295 112.547 156.459 112.055 156.631 111.523C156.803 110.977 156.975 110.406 157.147 109.812L152.014 113C151.357 112.828 150.561 112.523 149.623 112.086C148.686 111.633 147.74 111.062 146.787 110.375C145.834 109.672 144.951 108.852 144.139 107.914C143.326 106.977 142.709 105.922 142.287 104.75C141.678 103.25 141.35 101.609 141.303 99.8281C141.225 97.5469 141.115 95.5547 140.975 93.8516C140.834 92.1328 140.654 90.6875 140.436 89.5156L140.248 88.6719ZM163.316 113C163.613 110.641 163.832 108.5 163.973 106.578C164.129 104.641 164.207 102.891 164.207 101.328C164.207 100.062 164.191 98.8828 164.16 97.7891C164.144 96.6797 164.105 95.6328 164.043 94.6484C163.98 93.6484 163.894 92.6875 163.785 91.7656C163.691 90.8438 163.574 89.9141 163.433 88.9766L163.316 88.6016C164.269 88.4922 165.215 88.2734 166.152 87.9453C167.105 87.6016 168.074 87.1562 169.058 86.6094L169.223 86.5156C169.066 86.9688 168.902 87.4688 168.73 88.0156C168.558 88.5469 168.387 89.1094 168.215 89.7031L173.348 86.5156C173.973 86.6875 174.746 86.9922 175.668 87.4297C176.605 87.8516 177.551 88.4141 178.504 89.1172C179.457 89.8047 180.348 90.625 181.176 91.5781C182.019 92.5156 182.652 93.5781 183.074 94.7656L178.832 96.5C178.191 95.3281 177.457 94.3438 176.629 93.5469C175.801 92.7344 174.949 92.0781 174.074 91.5781C173.199 91.0625 172.34 90.6953 171.496 90.4766C170.652 90.2422 169.894 90.125 169.223 90.125C168.894 90.125 168.566 90.1484 168.238 90.1953H168.215C168.152 90.7734 168.105 91.6953 168.074 92.9609C168.058 94.2109 168.051 95.8203 168.051 97.7891V98.6094C168.051 103 168.379 106.797 169.035 110L169.223 110.844C168.613 110.922 168.012 111.039 167.418 111.195C166.824 111.352 166.262 111.539 165.73 111.758C165.215 111.961 164.746 112.172 164.324 112.391C163.902 112.609 163.566 112.812 163.316 113ZM179.681 113C179.978 110.641 180.197 108.5 180.337 106.578C180.494 104.641 180.572 102.891 180.572 101.328C180.572 100.062 180.556 98.8828 180.525 97.7891C180.509 96.6797 180.47 95.6328 180.408 94.6484C180.345 93.6484 180.259 92.6875 180.15 91.7656C180.056 90.8438 179.939 89.9141 179.798 88.9766L179.681 88.6016C180.634 88.4922 181.58 88.2734 182.517 87.9453C183.47 87.6016 184.439 87.1562 185.423 86.6094L185.587 86.5156C185.431 86.9688 185.267 87.4688 185.095 88.0156C184.923 88.5469 184.752 89.1094 184.58 89.7031L189.712 86.5156C190.337 86.6875 191.111 86.9922 192.033 87.4297C192.97 87.8516 193.916 88.4141 194.869 89.1172C195.822 89.8047 196.712 90.625 197.541 91.5781C198.384 92.5156 199.017 93.5781 199.439 94.7656L195.197 96.5C194.556 95.3281 193.822 94.3438 192.994 93.5469C192.166 92.7344 191.314 92.0781 190.439 91.5781C189.564 91.0625 188.705 90.6953 187.861 90.4766C187.017 90.2422 186.259 90.125 185.587 90.125C185.259 90.125 184.931 90.1484 184.603 90.1953H184.58C184.517 90.7734 184.47 91.6953 184.439 92.9609C184.423 94.2109 184.416 95.8203 184.416 97.7891V98.6094C184.416 103 184.744 106.797 185.4 110L185.587 110.844C184.978 110.922 184.377 111.039 183.783 111.195C183.189 111.352 182.627 111.539 182.095 111.758C181.58 111.961 181.111 112.172 180.689 112.391C180.267 112.609 179.931 112.812 179.681 113Z" fill="url(#paint4_linear_64_137)"/>
<defs>
<linearGradient id="paint0_linear_64_137" x1="78.375" y1="36.48" x2="132.181" y2="35.6697" gradientUnits="userSpaceOnUse">
<stop stop-color="#277FFF"/>
<stop offset="1" stop-color="#962AC3"/>
</linearGradient>
<linearGradient id="paint1_linear_64_137" x1="78.375" y1="36.48" x2="132.181" y2="35.6697" gradientUnits="userSpaceOnUse">
<stop stop-color="#277FFF"/>
<stop offset="1" stop-color="#962AC3"/>
</linearGradient>
<linearGradient id="paint2_linear_64_137" x1="78.375" y1="36.48" x2="132.181" y2="35.6697" gradientUnits="userSpaceOnUse">
<stop stop-color="#277FFF"/>
<stop offset="1" stop-color="#962AC3"/>
</linearGradient>
<linearGradient id="paint3_linear_64_137" x1="78.375" y1="36.48" x2="132.181" y2="35.6697" gradientUnits="userSpaceOnUse">
<stop stop-color="#277FFF"/>
<stop offset="1" stop-color="#962AC3"/>
</linearGradient>
<linearGradient id="paint4_linear_64_137" x1="-6.25786" y1="102.78" x2="261.037" y2="78.8968" gradientUnits="userSpaceOnUse">
<stop stop-color="#277FFF"/>
<stop offset="1" stop-color="#962AC3"/>
</linearGradient>
</defs>
</svg>
