<svg width="51" height="64" viewBox="0 0 51 64" fill="none" xmlns="http://www.w3.org/2000/svg">
<ellipse cx="25.5" cy="36.4452" rx="25.3341" ry="25.1119" fill="#23252E"/>
<path d="M29.3483 41.0089C29.0639 30.812 28.808 22.2411 28.7938 21.9656L28.7511 21.4557H26.0781L26.071 38.5354C26.0781 49.938 26.0031 55.6736 25.9217 55.8494C25.8021 56.1078 25.1895 59.5423 25.1895 59.5423C25.1895 59.5423 24.596 56.1078 24.4573 55.8494C24.395 55.7182 24.3009 49.938 24.308 38.5354L24.3009 21.4557H21.6279L21.5852 21.8278C21.5639 22.0276 21.3151 30.6053 21.0307 40.8711L20.5189 59.5423L22.8506 61.7746L25.1895 64L27.5284 61.7746L29.8601 59.5423L29.3483 41.0089Z" fill="url(#paint0_linear_79_36)"/>
<path d="M34.7582 17.811C34.5663 17.625 34.1398 17.5974 31.4028 17.6043C29.6824 17.6043 28.1397 17.5699 27.9762 17.5217C27.763 17.4528 27.4075 17.1634 26.6113 16.3917C25.5663 15.3789 25.5236 15.3514 25.1895 15.3583C24.8554 15.3514 24.8127 15.3789 23.7677 16.3917C23.1208 17.0187 22.6018 17.4665 22.4596 17.5079C22.3317 17.5492 20.789 17.5837 19.0331 17.5906C16.3886 17.6043 15.7985 17.6388 15.635 17.7972C15.3151 18.1073 14.6682 19.6575 14.6682 19.6575C14.6682 19.6575 17.9028 19.8022 25.1682 19.8022C30.9123 19.8022 35.7555 19.658 35.7555 19.658C35.6549 19.4631 34.9978 18.0432 34.7582 17.811Z" fill="url(#paint1_linear_79_36)"/>
<path d="M27.2227 12.9055C27.0379 9.72246 26.5687 5.0512 26.4194 4.90651C26.3412 4.83073 24.0307 4.83762 23.9525 4.9134C23.7961 5.06498 23.1919 11.4518 23.1137 13.8288L23.0852 14.6969L23.4051 14.4006C23.8743 13.9459 24.3791 13.7185 25.0118 13.6841C25.7298 13.6358 26.2488 13.8081 26.853 14.2973L27.3151 14.6624L27.2227 12.9055Z" fill="url(#paint2_linear_79_36)"/>
<path d="M29.2061 2.61911C29.1066 2.37107 28.8507 1.93013 28.6445 1.64765C27.1232 -0.44684 23.6113 -0.570856 21.9052 1.42718C21.4928 1.90946 20.981 2.87403 21.0379 3.08072C21.0663 3.19096 29.2203 3.25296 29.3341 3.14273C29.3625 3.11517 29.3056 2.88092 29.2061 2.61911Z" fill="url(#paint3_linear_79_36)"/>
<path fill-rule="evenodd" clip-rule="evenodd" d="M16.104 20.7129C15.3939 20.263 12.7562 18.4667 12.4604 18.2232C12.2882 18.0858 12.472 18.1583 14.092 18.8197C15.9001 19.5609 17.6073 20.1833 19.2687 20.695C20.8944 21.1975 23.9475 22.0212 24.0304 21.9748C24.1736 21.8947 23.9288 21.72 23.373 21.4954C22.0061 20.9552 19.8314 19.8348 18.8136 19.1383C17.8164 18.4595 16.0098 17.1136 16.1037 17.1195C16.1544 17.1203 16.5328 17.2495 16.9361 17.4036C19.8838 18.5395 25.531 20.395 26.7107 20.6211C29.3932 21.1263 31.4807 21.5943 32.2462 21.8671C33.5295 22.3177 34.0769 22.5957 36.644 24.0711C36.9838 24.2705 38.1787 24.7413 38.8218 24.9268L39.2628 25.0599L38.8932 25.1985C38.5926 25.318 38.5034 25.3875 38.4254 25.5771C38.3443 25.7783 38.3609 25.8567 38.5323 26.0432C39.0737 26.6654 41.8366 27.5249 43.3674 27.5643C44.145 27.5844 44.418 27.5874 44.5793 27.719C44.67 27.7929 44.7253 27.9075 44.8151 28.0884C45.216 28.8964 45.1707 30.3046 44.6974 31.6017C44.4532 32.2545 43.3254 33.9373 42.9124 34.2561C42.7489 34.3865 42.6057 34.4666 42.597 34.452C42.584 34.4301 42.5459 34.13 42.5087 33.7808C42.3845 32.594 41.9369 31.9777 40.6274 31.2302C39.173 30.4079 37.6343 30.0516 34.9244 29.922C33.5122 29.8455 31.9658 29.6785 31.2775 29.5183C30.9652 29.4496 30.1035 29.1332 29.367 28.8246C27.0776 27.8658 24.6401 27.3501 22.6241 27.4069C21.3084 27.4419 19.9697 27.6067 18.9757 27.861C18.0851 28.0866 18.0054 28.1215 16.4045 29.027C14.5851 30.0548 14.1205 30.4219 13.2491 31.523C11.6158 33.6055 11.5139 36.5549 13.0079 38.7086C14.2371 40.4771 17.5977 41.7215 20.9777 42.2511L20.8772 45.4656C19.6885 45.4453 18.1155 45.3055 16.9317 45.0928L15.8038 44.8863L15.6003 45.6917C15.4955 46.1399 15.3849 46.4939 15.3611 46.4877C15.3373 46.4816 14.9188 46.0827 14.4255 45.6089C13.454 44.6527 12.1954 43.4677 12.136 43.4523C12.1197 43.4419 11.8386 43.8134 11.5277 44.2698C11.2093 44.7304 10.9195 45.0873 10.8719 45.075C10.8125 45.0596 10.0139 42.7407 9.46708 40.9626C9.4091 40.781 9.40152 40.785 8.36661 41.335L7.32552 41.8882L7.54829 39.6308C7.66993 38.3844 7.76757 37.3169 7.75972 37.2532C7.74752 37.1821 7.56082 37.1892 7.22658 37.2691C6.20124 37.5214 5.59942 37.6244 5.60229 37.5449C5.60314 37.4957 6.04264 36.5973 6.56993 35.5427C7.10911 34.4911 7.53471 33.62 7.52601 33.6054C7.5173 33.5908 7.05167 33.5007 6.48776 33.3975C5.92385 33.2943 5.47966 33.1728 5.49994 33.1225C5.51268 33.0764 6.30072 32.392 7.24268 31.6117C8.18464 30.8314 8.98457 30.1501 9.01239 30.0956C9.05527 30.0326 8.66034 29.8251 7.95199 29.53C6.8954 29.089 6.67039 28.9811 6.8658 28.9887C6.91653 28.9895 7.77195 28.6374 8.78998 28.2042C9.48084 27.9108 10.1647 27.6214 10.5973 27.4383C10.7975 27.3535 10.9439 27.2916 11.0124 27.2625C11.2214 27.1748 11.384 27.0935 11.3797 27.0862C11.371 27.0716 10.996 26.7458 10.543 26.3565C10.0976 25.963 9.75279 25.6203 9.77424 25.5888C9.80757 25.5605 10.8744 25.4115 12.1517 25.2616C13.4334 25.119 14.4808 24.9712 14.4947 24.944C14.4967 24.9136 14.2739 24.5903 13.9981 24.2285C13.7191 23.8782 13.4963 23.5549 13.5015 23.513C13.5111 23.4784 14.2785 23.4678 15.2036 23.4858C16.1331 23.511 17.1628 23.5192 17.5006 23.4957C18.0758 23.4661 20.1616 23.0878 20.1882 23.0144C20.187 22.9956 19.4598 22.5845 18.5531 22.1082C17.6539 21.6278 16.5468 21.0007 16.104 20.7129ZM34.4453 25.019C34.147 24.923 33.496 24.6737 32.9996 24.4645C31.9355 24.0276 31.6798 24.0538 31.9931 24.5797C32.0932 24.7477 32.2869 24.8536 32.7485 25.0043C33.2576 25.1674 34.435 25.3558 34.9455 25.3526C35.1949 25.3494 34.9632 25.1966 34.4453 25.019Z" fill="white"/>
<path d="M29.4204 44.7837C29.471 44.7785 29.57 44.7891 29.6215 44.7837C34.2616 44.2909 36.4968 44.4194 39.0213 45.0812C41.2692 45.6834 42.6352 46.5259 44.373 48.3972C44.732 48.7806 45.0464 49.0722 45.0765 49.0553C45.1594 49.0089 44.1807 47.1804 43.7276 46.5379C43.1028 45.641 42.7647 45.3433 41.4981 44.5328C39.8537 43.476 39.3323 43.2418 37.5654 42.7892C34.9978 42.1224 32.957 41.969 29.9855 42.2099C29.627 42.2393 29.722 42.2511 29.3611 42.2099L29.4204 44.7837Z" fill="white"/>
<defs>
<linearGradient id="paint0_linear_79_36" x1="4.25437" y1="36.48" x2="57.8405" y2="35.6763" gradientUnits="userSpaceOnUse">
<stop stop-color="#277FFF"/>
<stop offset="1" stop-color="#962AC3"/>
</linearGradient>
<linearGradient id="paint1_linear_79_36" x1="4.25437" y1="36.48" x2="57.8405" y2="35.6763" gradientUnits="userSpaceOnUse">
<stop stop-color="#277FFF"/>
<stop offset="1" stop-color="#962AC3"/>
</linearGradient>
<linearGradient id="paint2_linear_79_36" x1="4.25437" y1="36.48" x2="57.8405" y2="35.6763" gradientUnits="userSpaceOnUse">
<stop stop-color="#277FFF"/>
<stop offset="1" stop-color="#962AC3"/>
</linearGradient>
<linearGradient id="paint3_linear_79_36" x1="4.25437" y1="36.48" x2="57.8405" y2="35.6763" gradientUnits="userSpaceOnUse">
<stop stop-color="#277FFF"/>
<stop offset="1" stop-color="#962AC3"/>
</linearGradient>
</defs>
</svg>
