<svg width="33" height="32" viewBox="0 0 33 32" fill="none" xmlns="http://www.w3.org/2000/svg">
<path d="M16.5946 27.5935C16.9366 27.5935 17.3066 27.5515 17.7045 27.4675C17.6605 27.7615 17.6285 28.0744 17.6085 28.4064C17.5865 28.7404 17.5755 29.0973 17.5755 29.4773C17.5755 30.0172 17.5865 30.4672 17.6085 30.8271C17.6285 31.1871 17.6545 31.4551 17.6865 31.631L17.7045 31.733C17.5825 31.747 17.4616 31.775 17.3416 31.817C17.2196 31.861 17.0886 31.922 16.9486 32C16.8226 31.958 16.6996 31.922 16.5796 31.892C16.4597 31.862 16.3227 31.847 16.1687 31.847C15.9067 31.847 15.6198 31.898 15.3078 32C15.4538 31.736 15.5338 31.4841 15.5478 31.2441C15.9197 31.2641 16.2307 31.3651 16.4807 31.5471C16.6006 31.639 16.7006 31.717 16.7806 31.781C16.8586 31.847 16.9176 31.9 16.9576 31.94C17.0416 31.3901 17.0836 30.7291 17.0836 29.9572V29.9032C16.5317 29.9312 16.0597 30.0442 15.6678 30.2422C15.7077 30.1662 15.7477 30.0622 15.7877 29.9302C15.8257 29.8002 15.8527 29.6523 15.8687 29.4863L15.9497 29.5103C16.1777 29.5783 16.5147 29.6123 16.9606 29.6123H17.0806C17.0726 28.7924 17.0396 28.2224 16.9816 27.9025C16.9216 27.8865 16.8746 27.8785 16.8406 27.8785C16.1527 27.8785 15.5828 27.9935 15.1308 28.2234C15.1668 28.1534 15.2048 28.0584 15.2448 27.9385C15.2828 27.8205 15.3118 27.6635 15.3318 27.4675L15.4098 27.4915C15.6278 27.5595 16.0227 27.5935 16.5946 27.5935Z" fill="url(#paint0_linear_80_77)"/>
<path d="M8.3135 24.4927C8.42042 24.5531 8.53615 24.6013 8.6607 24.6375C8.78245 24.674 8.92288 24.7019 9.08197 24.7211C9.0224 24.9868 8.96749 25.2954 8.91723 25.647C8.86697 25.9985 8.82084 26.3988 8.77886 26.8479C9.00627 26.756 9.21398 26.6709 9.40199 26.5924C9.58999 26.5139 9.7525 26.4417 9.88949 26.3756C10.0265 26.3095 10.1398 26.2522 10.2295 26.2036C10.3175 26.1539 10.3827 26.0999 10.425 26.0417C10.5319 26.102 10.6477 26.1503 10.7722 26.1864C10.894 26.2229 11.0344 26.2508 11.1935 26.27C10.7878 26.393 10.3828 26.5251 9.97851 26.6664C9.57308 26.8094 9.16442 26.9636 8.75253 27.1291L8.74355 27.2486C8.71812 27.8926 8.70073 28.4201 8.69137 28.831C8.68084 29.2436 8.67973 29.5394 8.68805 29.7185C8.6154 29.6756 8.54245 29.6399 8.46922 29.6114C8.3932 29.5833 8.32166 29.561 8.2546 29.5444C8.18476 29.5283 8.12139 29.5169 8.06448 29.5101C8.00596 29.5022 7.9559 29.498 7.91429 29.4974C7.99588 29.181 8.06358 28.8445 8.11737 28.4881C8.16836 28.1321 8.20736 27.7501 8.23437 27.3421C7.70532 27.5634 7.3016 27.7397 7.02319 27.8711C6.74317 28.0014 6.57906 28.0997 6.53087 28.166C6.17808 28.0086 5.93641 27.938 5.80586 27.9544C5.97756 27.9086 6.26789 27.8118 6.67685 27.664C7.08419 27.515 7.60853 27.3138 8.24989 27.0605C8.29388 26.1902 8.31508 25.3343 8.3135 24.4927Z" fill="url(#paint1_linear_80_77)"/>
<path d="M5.54992 19.6083C5.65559 19.9335 5.80986 20.2724 6.01271 20.6249C5.71954 20.6739 5.412 20.7402 5.09011 20.8238C4.76569 20.906 4.4228 21.0059 4.06144 21.1233C3.54793 21.2902 3.1234 21.4397 2.78786 21.5718C2.4517 21.7021 2.20487 21.8096 2.04739 21.8944L1.95596 21.943C1.90495 21.8314 1.84094 21.7249 1.76392 21.6238C1.68438 21.5214 1.5859 21.4157 1.46847 21.3066C1.46947 21.1738 1.4657 21.0457 1.45715 20.9224C1.4486 20.799 1.42054 20.6641 1.37295 20.5176C1.292 20.2685 1.15483 20.0113 0.961426 19.7461C1.25759 19.8034 1.52195 19.8016 1.7545 19.7408C1.85042 20.1007 1.85047 20.4276 1.75464 20.7216C1.70423 20.8642 1.66096 20.9833 1.62481 21.0792C1.58615 21.1738 1.55398 21.2462 1.5283 21.2966C2.07728 21.2066 2.71884 21.0423 3.45297 20.8038L3.50432 20.7871C3.30713 20.2708 3.05384 19.8569 2.74443 19.5453C2.82906 19.5598 2.94032 19.5657 3.0782 19.563C3.21357 19.5589 3.36265 19.5389 3.52545 19.5028L3.52766 19.5873C3.53344 19.8251 3.60524 20.1561 3.74304 20.5802L3.78012 20.6943C4.55743 20.4333 5.08927 20.2258 5.37565 20.0718C5.37233 20.0098 5.36542 19.9626 5.35491 19.9303C5.14233 19.276 4.85685 18.7695 4.49847 18.4108C4.57616 18.4234 4.67824 18.4302 4.80472 18.4311C4.92867 18.4308 5.08693 18.4099 5.2795 18.3683L5.28077 18.4499C5.28347 18.6782 5.37318 19.0644 5.54992 19.6083Z" fill="url(#paint2_linear_80_77)"/>
<path d="M5.23409 13.7715C4.9624 13.6369 4.67084 13.5086 4.3594 13.3863C4.04858 13.2622 3.71439 13.1421 3.35683 13.0259C2.85411 12.8646 2.42944 12.7382 2.08282 12.6466C1.73682 12.5531 1.46918 12.4935 1.2799 12.4677L1.17734 12.4533C1.20172 12.333 1.21248 12.2093 1.20962 12.0822C1.20547 11.9526 1.18794 11.8092 1.15702 11.6519C1.66555 11.9118 2.33918 12.178 3.17792 12.4505C3.26921 12.4802 3.3567 12.5086 3.44038 12.5358C3.52278 12.5604 3.60423 12.5848 3.68473 12.6089C3.53998 12.3684 3.28142 12.0058 2.90905 11.521C2.62869 11.1608 2.40399 10.8848 2.23495 10.6932C2.06401 10.501 1.9462 10.3944 1.88154 10.3734L1.84445 10.3614C1.88755 10.041 1.87408 9.80746 1.80403 9.66064C2.01945 10.046 2.43699 10.6086 3.05667 11.3482C3.2363 11.3519 3.41714 11.3486 3.5992 11.3384C3.77935 11.3275 3.9784 11.307 4.19635 11.2769C4.41492 11.2449 4.66059 11.2007 4.93336 11.1442C5.20484 11.0852 5.52078 11.0092 5.88118 10.916C5.8568 11.0363 5.84668 11.1613 5.85082 11.2909C5.85368 11.418 5.87057 11.5602 5.90149 11.7174C5.47067 11.6973 5.05429 11.7039 4.65233 11.7373C4.25099 11.7688 3.87431 11.8409 3.52229 11.9537C3.76237 12.2567 4.0282 12.5354 4.31977 12.79C4.49023 12.8348 4.63912 12.8716 4.76645 12.9004C4.89379 12.9292 5.00333 12.9479 5.0951 12.9567L5.20522 12.9673C5.18815 13.0521 5.17803 13.1351 5.17485 13.216C5.17039 13.2945 5.17032 13.3691 5.17466 13.4399C5.17961 13.5088 5.18736 13.5723 5.19792 13.6304C5.2091 13.6866 5.22115 13.7336 5.23409 13.7715Z" fill="url(#paint3_linear_80_77)"/>
<path d="M11.2599 5.34061C11.1995 5.39689 11.1444 5.45545 11.0947 5.5163C11.0449 5.57715 11.001 5.63748 10.9629 5.6973C10.9248 5.75712 10.893 5.81364 10.8673 5.86685C10.8417 5.92006 10.8228 5.96717 10.8106 6.00819C10.713 5.92831 10.564 5.81164 10.3635 5.6582C10.163 5.50475 9.90914 5.3135 9.60182 5.08443C9.50858 5.13982 9.41651 5.19682 9.32562 5.25544C9.23635 5.31288 9.14642 5.37452 9.05582 5.44034C9.02993 5.45915 9.00706 5.477 8.9872 5.4939C8.96617 5.50918 8.94757 5.5227 8.93139 5.53445C8.6515 5.7378 8.43396 5.9181 8.27877 6.07535L8.25803 6.09783C8.35315 6.41928 8.43191 6.67227 8.49431 6.85682C8.5567 7.04137 8.60612 7.15872 8.64256 7.20887L8.66548 7.24042C8.47028 7.45146 8.35698 7.64254 8.32558 7.81366C8.27382 7.50767 8.2068 7.16706 8.12449 6.79181C8.04102 6.41494 7.94035 5.99741 7.82251 5.53922C7.60634 4.70753 7.36913 4.04933 7.11089 3.56461L7.05007 3.46048C7.23217 3.29605 7.38489 3.07756 7.50823 2.80504C7.90748 3.2491 8.51719 3.74296 9.33733 4.28661C10.222 4.87485 10.8629 5.22618 11.2599 5.34061ZM9.35028 4.89641L9.00437 4.63976C8.63929 4.36862 8.34622 4.16256 8.12515 4.02161C7.90454 3.87786 7.75498 3.79619 7.67647 3.77659C7.68241 3.96508 7.80904 4.50341 8.05635 5.39157L8.15763 5.75551C8.24602 5.70365 8.33727 5.64723 8.4314 5.58626C8.52714 5.52412 8.62598 5.45602 8.7279 5.38196L8.77886 5.34494C9.01992 5.1698 9.21039 5.02029 9.35028 4.89641Z" fill="url(#paint4_linear_80_77)"/>
<path d="M16.7483 4.4065C16.4063 4.4065 16.0364 4.4485 15.6384 4.53249C15.6824 4.23252 15.7144 3.91556 15.7344 3.5816C15.7564 3.24763 15.7674 2.89267 15.7674 2.51672C15.7654 1.98878 15.7544 1.54583 15.7344 1.18787C15.7164 0.829907 15.6904 0.556937 15.6564 0.368958L15.6384 0.26697C15.7604 0.252972 15.8814 0.224975 16.0014 0.182979C16.1234 0.138984 16.2543 0.0779912 16.3943 0C16.3043 0.563937 16.2593 1.25186 16.2593 2.06377V2.16876C16.2593 3.08465 16.2933 3.72758 16.3613 4.09754C16.4153 4.11354 16.4623 4.12154 16.5023 4.12154C17.1902 4.12154 17.7602 4.00655 18.2121 3.77658C18.1741 3.84657 18.1351 3.94556 18.0951 4.07354C18.0551 4.19953 18.0271 4.35251 18.0111 4.53249L17.9332 4.50849C17.7152 4.4405 17.3202 4.4065 16.7483 4.4065Z" fill="url(#paint5_linear_80_77)"/>
<path d="M23.0489 6.53433C23.4711 6.09952 23.9009 5.58119 24.3381 4.97935C24.4028 4.89037 24.4654 4.80242 24.5261 4.7155C25.028 3.99748 25.3562 3.48449 25.5108 3.17654L25.5561 3.08345C25.77 3.20421 26.0181 3.27944 26.3006 3.30915L26.3246 3.31179C25.918 3.71836 25.4772 4.24846 25.0024 4.90207C24.9824 4.92957 24.9618 4.95788 24.9406 4.987C24.3764 5.76357 24.0185 6.31921 23.8667 6.65391L23.8227 6.75538C23.7033 6.6884 23.5881 6.63935 23.4773 6.60823C23.2989 6.55774 23.1561 6.5331 23.0489 6.53433Z" fill="url(#paint6_linear_80_77)"/>
<path d="M27.0299 11.0898C27.3345 11.0371 27.6195 10.9791 27.885 10.916C28.1504 10.8529 28.3982 10.7839 28.6284 10.7092C28.9079 10.6183 29.1657 10.522 29.4018 10.42C29.6384 10.32 29.8538 10.2227 30.0481 10.128L30.1395 10.0794C30.1905 10.1911 30.2545 10.2975 30.3316 10.3986C30.4111 10.5011 30.5036 10.6014 30.6091 10.6995L30.627 10.7158C30.3237 10.766 30.0533 10.8171 29.8157 10.869C29.5807 10.9223 29.3738 10.9779 29.195 11.036C29.1703 11.044 29.1465 11.0518 29.1237 11.0592C29.1009 11.0666 29.0793 11.0746 29.059 11.0833C28.6658 11.2321 28.3525 11.3518 28.1191 11.4424C27.8863 11.5348 27.7302 11.6013 27.6509 11.6418L27.6279 11.7944C27.6396 11.9987 27.6717 12.1817 27.7243 12.3434C27.7793 12.5127 27.8559 12.6612 27.9542 12.7891C28.0525 12.9169 28.1719 13.0254 28.3122 13.1143C28.4447 13.1533 28.5679 13.1732 28.6817 13.1741C28.7981 13.1762 28.9076 13.1606 29.0103 13.1272C29.2252 13.0574 29.3861 12.9441 29.4929 12.7875C29.5997 12.6308 29.6419 12.4405 29.6196 12.2164C29.6136 12.1658 29.6033 12.1177 29.5884 12.072C29.5143 11.8438 29.3156 11.5688 28.9923 11.247L29.8561 11.4299C30.1628 11.7656 30.512 11.8697 30.9038 11.7424C31.0407 11.6979 31.1372 11.6098 31.1932 11.478C31.2499 11.3482 31.2454 11.1825 31.1799 10.9809C31.1471 10.8864 31.1005 10.7849 31.04 10.6763C30.9813 10.567 30.9098 10.4568 30.8252 10.3455C30.7413 10.2361 30.6451 10.1275 30.5365 10.0198C30.4285 9.914 30.3094 9.81602 30.1792 9.72586L30.9878 9.67129C31.0875 9.79031 31.1639 9.88322 31.2172 9.95002C31.2723 10.0162 31.3071 10.0585 31.3215 10.077C31.4097 10.1997 31.4872 10.3249 31.5539 10.4525C31.6225 10.5795 31.6781 10.7086 31.7208 10.8398C31.764 10.973 31.7894 11.093 31.7968 11.1999C31.8042 11.3069 31.7968 11.4007 31.7747 11.4815C31.7241 11.6557 31.6502 11.7974 31.5533 11.9067C31.4563 12.016 31.3394 12.0929 31.2025 12.1374C31.0953 12.1701 30.9852 12.1806 30.8721 12.169C30.7615 12.1587 30.6545 12.1335 30.5511 12.0936C30.4477 12.0536 30.3513 12.0029 30.262 11.9415C30.1752 11.8814 30.1039 11.8173 30.0481 11.7492C30.0624 11.7803 30.0758 11.8117 30.0882 11.8434C30.1025 11.8745 30.1146 11.9053 30.1245 11.9357C30.1721 12.0821 30.1963 12.2215 30.1972 12.3536C30.1987 12.4877 30.1835 12.6125 30.1517 12.728C30.1198 12.8435 30.0735 12.95 30.0126 13.0476C29.9537 13.1445 29.887 13.2303 29.8124 13.305C29.7379 13.3797 29.6596 13.443 29.5776 13.4948C29.4957 13.5467 29.4157 13.5853 29.3377 13.6106C29.2407 13.6422 29.1495 13.6623 29.064 13.6712C28.9786 13.68 28.9115 13.6839 28.8629 13.6829C28.6795 13.6815 28.5149 13.654 28.3693 13.6004C28.2242 13.5488 28.0973 13.4785 27.9886 13.3898C27.8805 13.303 27.7892 13.2002 27.7149 13.0813C27.6411 12.9644 27.5826 12.8394 27.5394 12.7063C27.5134 12.6264 27.4943 12.5611 27.482 12.5104C27.4698 12.4597 27.4637 12.4312 27.4637 12.4249L27.526 11.7234C27.4905 11.6466 27.4503 11.5745 27.4052 11.5072C27.3627 11.4411 27.3189 11.3806 27.2738 11.3259C27.2293 11.2731 27.1857 11.2263 27.143 11.1855C27.1003 11.1447 27.0626 11.1128 27.0299 11.0898Z" fill="url(#paint7_linear_80_77)"/>
<path d="M32.0182 19.3612C31.9945 19.4796 31.9837 19.6034 31.9859 19.7324C31.9901 19.862 32.0076 20.0054 32.0385 20.1626C31.7859 20.0343 31.4956 19.9052 31.1676 19.7756C30.8397 19.6459 30.4694 19.514 30.0567 19.3799C29.8779 19.3218 29.7359 19.2767 29.6307 19.2446C29.5254 19.2125 29.457 19.1935 29.4253 19.1874C29.0204 19.081 28.671 19.121 28.3771 19.3073C28.1656 19.4404 27.9431 19.7466 27.7096 20.2258L27.7115 20.2296C27.7689 20.3765 27.9831 20.5523 28.3539 20.7569C28.5426 20.8624 28.8898 20.9973 29.3957 21.1616L29.4642 21.1839C29.7343 21.2716 30.0109 21.3521 30.2942 21.4252C30.5774 21.4983 30.8707 21.5662 31.1741 21.6291L31.2767 21.6435C31.2523 21.7638 31.2415 21.8875 31.2444 22.0146C31.2485 22.1442 31.2661 22.2877 31.297 22.4449C31.0335 22.3109 30.7638 22.1865 30.4878 22.0716C30.2119 21.9567 29.9255 21.851 29.6288 21.7546C29.334 21.6589 29.0948 21.5864 28.911 21.5372C28.7285 21.4905 28.6176 21.466 28.5784 21.4638C28.5092 21.4245 28.4306 21.3622 28.3427 21.2768C28.2561 21.194 28.1699 21.0966 28.0844 20.9847C28 20.8753 27.9226 20.7577 27.8521 20.6317C27.7816 20.5058 27.7285 20.3813 27.6928 20.2582L27.5128 19.4144C27.5245 19.3846 27.5445 19.349 27.5727 19.3077C27.6002 19.2683 27.6362 19.2221 27.6807 19.1693C27.7246 19.1184 27.7751 19.0633 27.8322 19.0041C27.8906 18.9473 27.954 18.8912 28.0225 18.8357C28.0929 18.7807 28.1665 18.7289 28.2433 18.6803C28.3214 18.6342 28.402 18.5963 28.4853 18.5665C28.7908 18.4934 29.0862 18.5032 29.3715 18.5959C29.6931 18.7256 29.9538 18.8229 30.1535 18.8878L30.2333 18.9137C30.9808 19.1566 31.5416 19.3009 31.9157 19.3468L32.0182 19.3612Z" fill="url(#paint8_linear_80_77)"/>
<path d="M24.4414 24.4541C24.5856 24.7274 24.7288 24.9806 24.8709 25.2136C25.0129 25.4465 25.1551 25.6609 25.2973 25.8567C25.4619 26.0832 25.6285 26.2921 25.7972 26.4834C25.9654 26.6776 26.1293 26.8589 26.2887 27.0273L26.3632 27.0992C26.2728 27.1823 26.1913 27.276 26.119 27.3805C26.0461 27.4878 25.976 27.6142 25.9086 27.7595C25.7742 27.4963 25.645 27.2589 25.521 27.0475C25.3954 26.8371 25.2738 26.6511 25.1563 26.4893C25.1351 26.4602 25.1157 26.4335 25.0981 26.4092C25.0805 26.385 25.0603 26.3589 25.0375 26.3309C25.0147 26.303 24.9884 26.2702 24.9586 26.2325C24.9288 26.1949 24.8917 26.1489 24.8473 26.0946L24.7853 26.1063C24.5318 26.1792 24.325 26.2739 24.1648 26.3903C24.0543 26.473 23.9617 26.565 23.887 26.6662C23.8118 26.7703 23.7544 26.88 23.7146 26.9954C23.6732 27.112 23.6574 27.2298 23.6672 27.3487C23.677 27.4677 23.7098 27.586 23.7656 27.7036C23.7983 27.7689 23.8304 27.8284 23.8619 27.8821C23.8931 27.9385 23.9251 27.9894 23.958 28.0347C24.0168 28.1156 24.0827 28.1876 24.1557 28.2507C24.23 28.3155 24.3063 28.3712 24.3848 28.418C24.4645 28.4664 24.5443 28.5048 24.6243 28.5332C24.7038 28.5645 24.7796 28.5872 24.8518 28.6015C24.9172 28.6133 24.992 28.6158 25.0761 28.6091C25.1586 28.6036 25.2462 28.5881 25.339 28.5627C25.4318 28.5373 25.5277 28.501 25.6269 28.4537C25.7244 28.4075 25.8225 28.3486 25.9212 28.2769C26.0053 28.2158 26.0866 28.1406 26.1652 28.0514C26.2433 27.965 26.3166 27.8685 26.385 27.762C26.4534 27.6554 26.5167 27.5402 26.575 27.4163C26.6317 27.2935 26.6806 27.1653 26.7219 27.0315L27.0212 27.7854C26.9315 27.9273 26.8636 28.0346 26.8177 28.1075C26.7718 28.1804 26.7462 28.2201 26.7409 28.2264C26.6235 28.371 26.5203 28.4892 26.4313 28.5811C26.3435 28.6745 26.2664 28.7454 26.2001 28.7936C26.1241 28.8488 26.0313 28.9014 25.9217 28.9513C25.8117 29.0041 25.6925 29.0475 25.5639 29.0815C25.435 29.1184 25.3022 29.1431 25.1656 29.1559C25.0286 29.1714 24.8948 29.171 24.7642 29.1546C24.6548 29.1401 24.5447 29.1126 24.4337 29.0722C24.3239 29.0333 24.2172 28.9835 24.1137 28.9227C24.0103 28.8619 23.9127 28.7906 23.8212 28.7088C23.7296 28.6271 23.648 28.5368 23.5763 28.4381C23.5144 28.3496 23.4599 28.2558 23.4126 28.1566C23.3665 28.0591 23.3289 27.953 23.2998 27.8381C23.2719 27.7249 23.2594 27.6005 23.2623 27.465C23.2663 27.331 23.2911 27.1882 23.3366 27.0365C23.3463 27.0022 23.3576 26.9718 23.3704 26.9452L23.371 26.941C23.1432 26.8247 22.9253 26.7272 22.7173 26.6485C22.5088 26.5725 22.3083 26.5143 22.1157 26.4737C22.2062 26.3907 22.2878 26.2956 22.3607 26.1883C22.433 26.0838 22.5029 25.9588 22.5703 25.8134C23.0739 26.1867 23.4279 26.4239 23.6323 26.525C23.6462 26.51 23.6624 26.4932 23.6811 26.4747C23.6998 26.4562 23.7225 26.4347 23.7493 26.4104C23.7761 26.386 23.8053 26.3598 23.8369 26.3319C23.8697 26.3056 23.9023 26.2807 23.9346 26.2572C24.0414 26.1796 24.1532 26.1107 24.2702 26.0505C24.3866 25.993 24.5072 25.9413 24.6319 25.8952L24.6736 25.876C24.5032 25.6686 24.3666 25.5045 24.2641 25.3838C24.1627 25.2646 24.092 25.1912 24.052 25.1633L23.9921 25.1216C24.0622 25.0583 24.123 24.9956 24.1743 24.9336C24.224 24.8728 24.2657 24.8128 24.2994 24.7537C24.3331 24.6946 24.3612 24.6396 24.3835 24.5888C24.4071 24.5395 24.4264 24.4946 24.4414 24.4541Z" fill="url(#paint9_linear_80_77)"/>
<defs>
<linearGradient id="paint0_linear_80_77" x1="-0.0158418" y1="18.24" x2="42.0366" y2="17.2498" gradientUnits="userSpaceOnUse">
<stop stop-color="#277FFF"/>
<stop offset="1" stop-color="#962AC3"/>
</linearGradient>
<linearGradient id="paint1_linear_80_77" x1="-0.0158418" y1="18.24" x2="42.0366" y2="17.2498" gradientUnits="userSpaceOnUse">
<stop stop-color="#277FFF"/>
<stop offset="1" stop-color="#962AC3"/>
</linearGradient>
<linearGradient id="paint2_linear_80_77" x1="-0.0158418" y1="18.24" x2="42.0366" y2="17.2498" gradientUnits="userSpaceOnUse">
<stop stop-color="#277FFF"/>
<stop offset="1" stop-color="#962AC3"/>
</linearGradient>
<linearGradient id="paint3_linear_80_77" x1="-0.0158418" y1="18.24" x2="42.0366" y2="17.2498" gradientUnits="userSpaceOnUse">
<stop stop-color="#277FFF"/>
<stop offset="1" stop-color="#962AC3"/>
</linearGradient>
<linearGradient id="paint4_linear_80_77" x1="-0.0158418" y1="18.24" x2="42.0366" y2="17.2498" gradientUnits="userSpaceOnUse">
<stop stop-color="#277FFF"/>
<stop offset="1" stop-color="#962AC3"/>
</linearGradient>
<linearGradient id="paint5_linear_80_77" x1="-0.0158418" y1="18.24" x2="42.0366" y2="17.2498" gradientUnits="userSpaceOnUse">
<stop stop-color="#277FFF"/>
<stop offset="1" stop-color="#962AC3"/>
</linearGradient>
<linearGradient id="paint6_linear_80_77" x1="-0.0158418" y1="18.24" x2="42.0366" y2="17.2498" gradientUnits="userSpaceOnUse">
<stop stop-color="#277FFF"/>
<stop offset="1" stop-color="#962AC3"/>
</linearGradient>
<linearGradient id="paint7_linear_80_77" x1="-0.0158418" y1="18.24" x2="42.0366" y2="17.2498" gradientUnits="userSpaceOnUse">
<stop stop-color="#277FFF"/>
<stop offset="1" stop-color="#962AC3"/>
</linearGradient>
<linearGradient id="paint8_linear_80_77" x1="-0.0158418" y1="18.24" x2="42.0366" y2="17.2498" gradientUnits="userSpaceOnUse">
<stop stop-color="#277FFF"/>
<stop offset="1" stop-color="#962AC3"/>
</linearGradient>
<linearGradient id="paint9_linear_80_77" x1="-0.0158418" y1="18.24" x2="42.0366" y2="17.2498" gradientUnits="userSpaceOnUse">
<stop stop-color="#277FFF"/>
<stop offset="1" stop-color="#962AC3"/>
</linearGradient>
</defs>
</svg>
