<svg width="227" height="126" viewBox="0 0 227 126" fill="none" xmlns="http://www.w3.org/2000/svg">
<ellipse cx="113.5" cy="36.4452" rx="25.3341" ry="25.1119" fill="#23252E"/>
<path d="M117.348 41.0089C117.064 30.812 116.808 22.2411 116.794 21.9656L116.751 21.4557H114.078L114.071 38.5354C114.078 49.938 114.003 55.6736 113.922 55.8494C113.802 56.1078 113.189 59.5423 113.189 59.5423C113.189 59.5423 112.596 56.1078 112.457 55.8494C112.395 55.7182 112.301 49.938 112.308 38.5354L112.301 21.4557H109.628L109.585 21.8278C109.564 22.0276 109.315 30.6053 109.031 40.8711L108.519 59.5423L110.851 61.7746L113.189 64L115.528 61.7746L117.86 59.5423L117.348 41.0089Z" fill="url(#paint0_linear_64_137)"/>
<path d="M122.758 17.811C122.566 17.625 122.14 17.5974 119.403 17.6043C117.682 17.6043 116.14 17.5699 115.976 17.5217C115.763 17.4528 115.407 17.1634 114.611 16.3917C113.566 15.3789 113.524 15.3514 113.189 15.3583C112.855 15.3514 112.813 15.3789 111.768 16.3917C111.121 17.0187 110.602 17.4665 110.46 17.5079C110.332 17.5492 108.789 17.5837 107.033 17.5906C104.389 17.6043 103.798 17.6388 103.635 17.7972C103.315 18.1073 102.668 19.6575 102.668 19.6575C102.668 19.6575 105.903 19.8022 113.168 19.8022C118.912 19.8022 123.755 19.658 123.755 19.658C123.655 19.4631 122.998 18.0432 122.758 17.811Z" fill="url(#paint1_linear_64_137)"/>
<path d="M115.223 12.9055C115.038 9.72246 114.569 5.0512 114.419 4.90651C114.341 4.83073 112.031 4.83762 111.953 4.9134C111.796 5.06498 111.192 11.4518 111.114 13.8288L111.085 14.6969L111.405 14.4006C111.874 13.9459 112.379 13.7185 113.012 13.6841C113.73 13.6358 114.249 13.8081 114.853 14.2973L115.315 14.6624L115.223 12.9055Z" fill="url(#paint2_linear_64_137)"/>
<path d="M117.206 2.61911C117.107 2.37107 116.851 1.93013 116.644 1.64765C115.123 -0.44684 111.611 -0.570856 109.905 1.42718C109.493 1.90946 108.981 2.87403 109.038 3.08072C109.066 3.19096 117.22 3.25296 117.334 3.14273C117.362 3.11517 117.306 2.88092 117.206 2.61911Z" fill="url(#paint3_linear_64_137)"/>
<path fill-rule="evenodd" clip-rule="evenodd" d="M104.104 20.7129C103.394 20.263 100.756 18.4667 100.46 18.2232C100.288 18.0858 100.472 18.1583 102.092 18.8197C103.9 19.5609 105.607 20.1833 107.269 20.695C108.894 21.1975 111.947 22.0212 112.03 21.9748C112.174 21.8947 111.929 21.72 111.373 21.4954C110.006 20.9552 107.831 19.8348 106.814 19.1383C105.816 18.4595 104.01 17.1136 104.104 17.1195C104.154 17.1203 104.533 17.2495 104.936 17.4036C107.884 18.5395 113.531 20.395 114.711 20.6211C117.393 21.1263 119.481 21.5943 120.246 21.8671C121.529 22.3177 122.077 22.5957 124.644 24.0711C124.984 24.2705 126.179 24.7413 126.822 24.9268L127.263 25.0599L126.893 25.1985C126.593 25.318 126.503 25.3875 126.425 25.5771C126.344 25.7783 126.361 25.8567 126.532 26.0432C127.074 26.6654 129.837 27.5249 131.367 27.5643C132.145 27.5844 132.418 27.5874 132.579 27.719C132.67 27.7929 132.725 27.9075 132.815 28.0884C133.216 28.8964 133.171 30.3046 132.697 31.6017C132.453 32.2545 131.325 33.9373 130.912 34.2561C130.749 34.3865 130.606 34.4666 130.597 34.452C130.584 34.4301 130.546 34.13 130.509 33.7808C130.384 32.594 129.937 31.9777 128.627 31.2302C127.173 30.4079 125.634 30.0516 122.924 29.922C121.512 29.8455 119.966 29.6785 119.277 29.5183C118.965 29.4496 118.103 29.1332 117.367 28.8246C115.078 27.8658 112.64 27.3501 110.624 27.4069C109.308 27.4419 107.97 27.6067 106.976 27.861C106.085 28.0866 106.005 28.1215 104.404 29.027C102.585 30.0548 102.12 30.4219 101.249 31.523C99.6158 33.6055 99.5138 36.5549 101.008 38.7086C102.237 40.4771 105.598 41.7215 108.978 42.2511L108.877 45.4656C107.688 45.4453 106.115 45.3055 104.932 45.0928L103.804 44.8863L103.6 45.6917C103.495 46.1399 103.385 46.4939 103.361 46.4877C103.337 46.4816 102.919 46.0827 102.426 45.6089C101.454 44.6527 100.195 43.4677 100.136 43.4523C100.12 43.4419 99.8386 43.8134 99.5277 44.2698C99.2092 44.7304 98.9194 45.0873 98.8719 45.075C98.8124 45.0596 98.0138 42.7407 97.4671 40.9626C97.4091 40.781 97.4015 40.785 96.3666 41.335L95.3255 41.8882L95.5483 39.6308C95.6699 38.3844 95.7675 37.3169 95.7597 37.2532C95.7475 37.1821 95.5608 37.1892 95.2265 37.2691C94.2012 37.5214 93.5994 37.6244 93.6023 37.5449C93.6031 37.4957 94.0426 36.5973 94.5699 35.5427C95.1091 34.4911 95.5347 33.62 95.526 33.6054C95.5173 33.5908 95.0516 33.5007 94.4877 33.3975C93.9238 33.2943 93.4796 33.1728 93.4999 33.1225C93.5126 33.0764 94.3007 32.392 95.2426 31.6117C96.1846 30.8314 96.9845 30.1501 97.0124 30.0956C97.0552 30.0326 96.6603 29.8251 95.952 29.53C94.8954 29.089 94.6704 28.9811 94.8658 28.9887C94.9165 28.9895 95.7719 28.6374 96.7899 28.2042C97.4808 27.9108 98.1646 27.6214 98.5973 27.4383C98.7975 27.3535 98.9439 27.2916 99.0124 27.2625C99.2214 27.1748 99.384 27.0935 99.3797 27.0862C99.371 27.0716 98.996 26.7458 98.543 26.3565C98.0976 25.963 97.7528 25.6203 97.7742 25.5888C97.8075 25.5605 98.8744 25.4115 100.152 25.2616C101.433 25.119 102.481 24.9712 102.495 24.944C102.497 24.9136 102.274 24.5903 101.998 24.2285C101.719 23.8782 101.496 23.5549 101.502 23.513C101.511 23.4784 102.278 23.4678 103.204 23.4858C104.133 23.511 105.163 23.5192 105.501 23.4957C106.076 23.4661 108.162 23.0878 108.188 23.0144C108.187 22.9956 107.46 22.5845 106.553 22.1082C105.654 21.6278 104.547 21.0007 104.104 20.7129ZM122.445 25.019C122.147 24.923 121.496 24.6737 121 24.4645C119.935 24.0276 119.68 24.0538 119.993 24.5797C120.093 24.7477 120.287 24.8536 120.748 25.0043C121.258 25.1674 122.435 25.3558 122.946 25.3526C123.195 25.3494 122.963 25.1966 122.445 25.019Z" fill="white"/>
<path d="M117.42 44.7837C117.471 44.7785 117.57 44.7891 117.621 44.7837C122.262 44.2909 124.497 44.4194 127.021 45.0812C129.269 45.6834 130.635 46.5259 132.373 48.3972C132.732 48.7806 133.046 49.0722 133.077 49.0553C133.159 49.0089 132.181 47.1804 131.728 46.5379C131.103 45.641 130.765 45.3433 129.498 44.5328C127.854 43.476 127.332 43.2418 125.565 42.7892C122.998 42.1224 120.957 41.969 117.985 42.2099C117.627 42.2393 117.722 42.2511 117.361 42.2099L117.42 44.7837Z" fill="white"/>
<path d="M8.98 100.78C9.15333 101.58 9.34 102.427 9.54 103.32C9.74 104.213 9.94667 105.1 10.16 105.98C10.3867 106.86 10.6133 107.713 10.84 108.54C11.0667 109.367 11.28 110.12 11.48 110.8C11.64 110.053 11.7933 109.227 11.94 108.32C12.0867 107.4 12.2267 106.44 12.36 105.44C12.5067 104.44 12.64 103.407 12.76 102.34C12.88 101.273 12.98 100.207 13.06 99.14H14.82C14.5133 101.82 14.1667 104.287 13.78 106.54C13.4067 108.793 12.9667 110.947 12.46 113H10.64C10.44 112.347 10.22 111.62 9.98 110.82C9.75333 110.02 9.52667 109.193 9.3 108.34C9.07333 107.473 8.85333 106.6 8.64 105.72C8.42667 104.84 8.23333 103.987 8.06 103.16C7.88667 103.987 7.69333 104.84 7.48 105.72C7.26667 106.6 7.04667 107.473 6.82 108.34C6.59333 109.193 6.36 110.02 6.12 110.82C5.89333 111.62 5.68 112.347 5.48 113H3.66C3.15333 110.947 2.70667 108.793 2.32 106.54C1.94667 104.287 1.60667 101.82 1.3 99.14H3.12C3.2 100.207 3.3 101.273 3.42 102.34C3.54 103.393 3.66667 104.427 3.8 105.44C3.94667 106.44 4.09333 107.4 4.24 108.32C4.38667 109.227 4.54 110.053 4.7 110.8C4.9 110.12 5.11333 109.367 5.34 108.54C5.56667 107.713 5.78667 106.86 6 105.98C6.22667 105.1 6.44 104.213 6.64 103.32C6.84 102.427 7.02667 101.58 7.2 100.78H8.98ZM15.6642 108.26C15.6776 108.767 15.7242 109.233 15.8042 109.66C15.8842 110.073 16.0109 110.44 16.1842 110.76C16.3709 111.067 16.6109 111.307 16.9042 111.48C17.2109 111.653 17.5976 111.74 18.0642 111.74C18.4509 111.74 18.8042 111.687 19.1242 111.58C19.4576 111.46 19.6976 111.36 19.8442 111.28L20.1642 112.66C19.9909 112.78 19.6976 112.907 19.2842 113.04C18.8842 113.187 18.4042 113.26 17.8442 113.26C17.1109 113.26 16.4909 113.127 15.9842 112.86C15.4909 112.593 15.0842 112.22 14.7642 111.74C14.4576 111.26 14.2376 110.687 14.1042 110.02C13.9709 109.353 13.9042 108.62 13.9042 107.82C13.9042 105.887 14.2242 104.473 14.8642 103.58C15.5042 102.687 16.3509 102.24 17.4042 102.24C18.5909 102.24 19.4309 102.687 19.9242 103.58C20.4176 104.473 20.6642 105.727 20.6642 107.34C20.6642 107.487 20.6642 107.64 20.6642 107.8C20.6642 107.947 20.6576 108.1 20.6442 108.26H15.6642ZM17.4042 103.7C16.8309 103.7 16.4109 103.987 16.1442 104.56C15.8909 105.133 15.7376 105.9 15.6842 106.86H18.8642C18.8642 105.887 18.7642 105.12 18.5642 104.56C18.3642 103.987 17.9776 103.7 17.4042 103.7ZM22.4952 111.6C22.6818 111.653 22.8618 111.693 23.0352 111.72C23.2085 111.733 23.3685 111.74 23.5152 111.74C24.2885 111.74 24.8618 111.433 25.2352 110.82C25.6218 110.193 25.8152 109.16 25.8152 107.72C25.8152 106.973 25.7685 106.347 25.6752 105.84C25.5818 105.333 25.4418 104.927 25.2552 104.62C25.0818 104.313 24.8685 104.093 24.6152 103.96C24.3618 103.827 24.0685 103.76 23.7352 103.76C23.2952 103.76 22.8818 103.867 22.4952 104.08V111.6ZM22.4952 102.58C22.7085 102.473 22.9218 102.393 23.1352 102.34C23.3618 102.273 23.6285 102.24 23.9352 102.24C24.5885 102.24 25.1485 102.373 25.6152 102.64C26.0818 102.893 26.4618 103.26 26.7552 103.74C27.0485 104.207 27.2618 104.78 27.3952 105.46C27.5418 106.127 27.6152 106.88 27.6152 107.72C27.6152 109.573 27.2818 110.96 26.6152 111.88C25.9618 112.8 24.9285 113.26 23.5152 113.26C23.0218 113.26 22.5352 113.207 22.0552 113.1C21.5752 113.007 21.1485 112.88 20.7752 112.72V97.78L22.4952 97.48V102.58Z" fill="white"/>
<path d="M34.5908 88.6016C34.8252 88.5859 35.1455 88.5312 35.5517 88.4375C35.958 88.3438 36.4189 88.2109 36.9345 88.0391C37.4502 87.8672 37.997 87.6562 38.5752 87.4062C39.1533 87.1562 39.7392 86.8594 40.333 86.5156L40.5205 87.125C40.833 88.1406 41.4111 89.4375 42.2548 91.0156C43.0986 92.5781 44.2548 94.4375 45.7236 96.5938C47.7236 93.6562 49.247 91.3828 50.2939 89.7734C51.3564 88.1641 51.958 87.2031 52.0986 86.8906L52.2627 86.5156C52.9189 86.9688 53.5361 87.3047 54.1142 87.5234C54.6923 87.7422 55.1689 87.8828 55.5439 87.9453C53.622 89.8203 50.747 93.2812 46.9189 98.3281L47.6923 99.4297C52.2861 105.852 55.3642 109.664 56.9267 110.867C54.7236 111.336 52.8173 112.047 51.208 113L50.997 112.438C50.4189 111.062 48.3095 107.609 44.6689 102.078L44.4111 101.68C40.3955 107.211 38.2236 110.875 37.8955 112.672L37.7314 113C36.8408 112.375 35.7548 111.883 34.4736 111.523C35.8173 110.508 38.7705 106.695 43.333 100.086C40.0048 95.1328 37.0908 91.3047 34.5908 88.6016ZM54.6823 113C55.0261 110.656 55.2761 108.18 55.4323 105.57C55.6042 102.961 55.6902 100.188 55.6902 97.25C55.6745 93.125 55.5886 89.6641 55.4323 86.8672C55.2917 84.0703 55.0886 81.9375 54.823 80.4688L54.6823 79.6719C55.6355 79.5625 56.5808 79.3438 57.5183 79.0156C58.4714 78.6719 59.4948 78.1953 60.5886 77.5859C59.8855 81.9922 59.5339 87.6406 59.5339 94.5312C59.5339 95.2812 59.5339 96 59.5339 96.6875C59.5495 97.3594 59.5652 98.0234 59.5808 98.6797C61.0183 97.0234 63.0886 94.2266 65.7917 90.2891C67.7917 87.3359 69.2995 85 70.3152 83.2812C71.3308 81.5469 71.8386 80.4141 71.8386 79.8828V79.5781C74.323 79.125 76.0261 78.4609 76.948 77.5859C74.6042 80.1172 71.4323 84.5781 67.4323 90.9688C67.8386 92.3125 68.2995 93.6484 68.8152 94.9766C69.3308 96.2891 69.9636 97.7188 70.7136 99.2656C71.4792 100.812 72.4011 102.531 73.4792 104.422C74.573 106.297 75.9011 108.461 77.4636 110.914C76.5105 111.023 75.5573 111.25 74.6042 111.594C73.6667 111.922 72.6511 112.391 71.5573 113C70.6667 109.75 69.612 106.672 68.3933 103.766C67.1902 100.859 65.7448 98.2344 64.0573 95.8906C62.3855 98.4062 60.9558 101.055 59.7683 103.836C59.8464 105.211 59.9323 106.406 60.0261 107.422C60.1198 108.438 60.2448 109.297 60.4011 110L60.5886 110.844C59.9167 110.922 59.2761 111.047 58.6667 111.219C58.073 111.375 57.5183 111.555 57.0027 111.758C56.5027 111.961 56.0495 112.172 55.6433 112.391C55.2527 112.609 54.9323 112.812 54.6823 113ZM76.9302 93.3125C77.3364 92.375 78.0239 91.5156 78.9927 90.7344L80.0942 89.8438L85.438 86.5156C86.3286 86.75 87.4302 87.2031 88.7427 87.875C89.9927 88.5156 91.1645 89.3672 92.2583 90.4297C93.6333 91.7734 94.602 93.2188 95.1645 94.7656C95.7739 96.2656 96.102 97.9062 96.1489 99.6875C96.2583 104.125 96.5473 107.562 97.0161 110L97.2036 110.844C96.1411 110.969 95.188 111.188 94.3442 111.5C92.9848 112 91.9692 112.5 91.2973 113C91.8911 108.781 92.188 104.586 92.188 100.414C92.188 100.211 92.188 100 92.188 99.7812C92.188 98 91.9067 96.6406 91.3442 95.7031C90.3598 94.25 89.0005 93.1172 87.2661 92.3047C85.7036 91.5703 83.3911 90.8672 80.3286 90.1953C80.0786 90.5859 79.9536 91.2656 79.9536 92.2344C79.9536 92.8438 80.0552 93.6406 80.2583 94.625L76.9302 93.3125ZM86.352 113C85.4614 112.688 84.0473 112.031 82.1098 111.031C80.6567 110.281 79.2505 109.156 77.8911 107.656C76.8911 106.094 76.3911 104.648 76.3911 103.32C76.3911 103.289 76.3911 103.25 76.3911 103.203C76.6255 101.312 77.5005 99.7812 79.0161 98.6094C81.5786 96.6406 84.7895 95.6406 88.6489 95.6094C83.8833 97.3594 81.1255 99.3125 80.3755 101.469C80.2192 101.922 80.1411 102.359 80.1411 102.781C80.1411 103.5 80.3911 104.141 80.8911 104.703C82.2348 106.062 83.3677 106.969 84.2895 107.422C87.1177 108.812 89.4458 109.594 91.2739 109.766L86.352 113ZM97.303 113C97.9748 108.312 98.3108 103.062 98.3108 97.25C98.3108 96.3906 98.303 95.5469 98.2873 94.7188C98.1623 87.875 97.8811 83.125 97.4436 80.4688L97.303 79.6719C99.2092 79.4531 101.123 78.7891 103.045 77.6797L103.209 77.5859C102.506 82.0234 102.155 87.3984 102.155 93.7109C102.155 93.9766 102.155 94.25 102.155 94.5312C102.155 102.031 102.444 107.188 103.022 110L103.209 110.844C102.147 110.969 101.194 111.188 100.35 111.5C98.9905 112 97.9748 112.5 97.303 113ZM104.48 85.25C104.777 83.9688 104.926 82.625 104.926 81.2188C104.926 80.7969 104.91 80.375 104.879 79.9531C104.863 79.5312 104.824 79.1094 104.762 78.6875L104.621 78.1953C106.637 77.9922 108.676 77.2969 110.738 76.1094L110.902 76.0156C110.652 76.9062 110.527 78.1797 110.527 79.8359C110.527 80.2734 110.543 80.7578 110.574 81.2891C110.621 81.8047 110.684 82.375 110.762 83C110.121 83.0781 109.48 83.2031 108.84 83.375C108.215 83.5312 107.621 83.7188 107.059 83.9375C106.512 84.1406 106.012 84.3594 105.559 84.5938C105.121 84.8281 104.762 85.0469 104.48 85.25ZM104.879 113C105.176 110.641 105.395 108.5 105.535 106.578C105.691 104.641 105.77 102.891 105.77 101.328C105.77 100.062 105.754 98.8828 105.723 97.7891C105.707 96.6797 105.668 95.6328 105.605 94.6484C105.543 93.6484 105.457 92.6875 105.348 91.7656C105.254 90.8438 105.137 89.9141 104.996 88.9766L104.879 88.6016C105.832 88.4922 106.777 88.2734 107.715 87.9453C108.668 87.6016 109.637 87.1562 110.621 86.6094L110.785 86.5156C110.004 89.2188 109.613 92.9766 109.613 97.7891V98.6094C109.613 103 109.941 106.797 110.598 110L110.785 110.844C110.113 110.922 109.473 111.047 108.863 111.219C108.27 111.375 107.715 111.555 107.199 111.758C106.699 111.961 106.246 112.172 105.84 112.391C105.449 112.609 105.129 112.812 104.879 113ZM113.299 113C113.642 110.609 113.9 108.352 114.072 106.227C114.244 104.102 114.33 102.094 114.33 100.203C114.33 97.9062 114.236 95.7578 114.049 93.7578C113.877 91.7578 113.674 89.9219 113.439 88.25L113.299 87.4531C114.252 87.3438 115.197 87.125 116.135 86.7969C117.088 86.4531 118.056 86.0078 119.041 85.4609L119.205 85.3672C118.845 87.7422 118.572 89.875 118.385 91.7656C118.213 93.6406 118.127 95.3125 118.127 96.7812C118.127 96.9844 118.127 97.1797 118.127 97.3672C118.127 97.5547 118.135 97.7344 118.15 97.9062C118.306 101.188 118.439 103.805 118.549 105.758C118.674 107.711 118.791 109.031 118.9 109.719L119.978 110.258C121.525 110.664 122.963 110.867 124.291 110.867C125.681 110.867 126.97 110.656 128.158 110.234C129.345 109.812 130.439 109.188 131.439 108.359C132.049 107.469 132.494 106.602 132.775 105.758C133.072 104.898 133.22 104.047 133.22 103.203C133.22 101.438 132.767 99.9688 131.861 98.7969C130.955 97.625 129.642 96.8516 127.924 96.4766C127.533 96.3984 127.15 96.3594 126.775 96.3594C124.9 96.3594 122.377 97.1719 119.205 98.7969L122.65 92.8203C125.885 91.3516 127.502 89.0078 127.502 85.7891C127.502 84.6641 127.08 83.7344 126.236 83C125.408 82.2656 124.166 81.8984 122.51 81.8984C121.728 81.9141 120.861 82.0156 119.908 82.2031C118.955 82.375 117.963 82.6406 116.931 83C115.916 83.3594 114.877 83.8125 113.814 84.3594C112.767 84.9062 111.752 85.5547 110.767 86.3047L112.314 80.1641C113.439 79.7109 114.314 79.3672 114.939 79.1328C115.564 78.8828 115.963 78.7266 116.135 78.6641C117.26 78.3047 118.377 78.0312 119.486 77.8438C120.595 77.6406 121.689 77.5391 122.767 77.5391C123.861 77.5391 124.814 77.6406 125.627 77.8438C126.439 78.0469 127.119 78.3281 127.666 78.6875C128.838 79.4844 129.713 80.375 130.291 81.3594C130.869 82.3438 131.158 83.3984 131.158 84.5234C131.142 85.3984 130.955 86.2422 130.595 87.0547C130.252 87.8516 129.806 88.5859 129.26 89.2578C128.713 89.9297 128.103 90.5234 127.431 91.0391C126.775 91.5391 126.127 91.9141 125.486 92.1641C125.752 92.1328 126.017 92.1094 126.283 92.0938C126.549 92.0625 126.806 92.0469 127.056 92.0469C128.26 92.0469 129.353 92.2031 130.338 92.5156C131.338 92.8281 132.228 93.2422 133.01 93.7578C133.791 94.2734 134.47 94.875 135.049 95.5625C135.627 96.2344 136.103 96.9375 136.478 97.6719C136.853 98.4062 137.135 99.1406 137.322 99.875C137.51 100.609 137.603 101.297 137.603 101.938C137.603 102.734 137.533 103.461 137.392 104.117C137.252 104.773 137.119 105.281 136.994 105.641C136.541 107 135.939 108.156 135.189 109.109C134.455 110.062 133.627 110.836 132.705 111.43C131.799 112.023 130.814 112.453 129.752 112.719C128.705 112.984 127.635 113.117 126.541 113.117C125.885 113.117 125.353 113.102 124.947 113.07C124.541 113.039 124.314 113.016 124.267 113L119.205 110.844C118.549 110.922 117.916 111.047 117.306 111.219C116.713 111.375 116.158 111.555 115.642 111.758C115.142 111.961 114.689 112.172 114.283 112.391C113.877 112.609 113.549 112.812 113.299 113ZM136.976 88.6719C137.632 88.6094 138.257 88.5 138.851 88.3438C139.46 88.1719 140.015 87.9844 140.515 87.7812C141.031 87.5625 141.484 87.3438 141.875 87.125C142.281 86.9062 142.617 86.7031 142.882 86.5156C142.273 90.625 141.968 94.5859 141.968 98.3984C142 99.0703 142.023 99.6719 142.039 100.203C142.07 100.734 142.109 101.219 142.156 101.656C142.203 102.078 142.281 102.469 142.39 102.828C142.5 103.172 142.648 103.5 142.835 103.812C143.289 104.484 143.804 105.086 144.382 105.617C144.976 106.148 145.703 106.633 146.562 107.07C147.421 107.492 148.437 107.891 149.609 108.266C150.796 108.625 152.218 108.977 153.875 109.32C153.937 108.742 153.976 107.828 153.992 106.578C154.023 105.312 154.039 103.695 154.039 101.727V100.906C154.007 98.7188 153.921 96.6797 153.781 94.7891C153.656 92.8828 153.414 91.125 153.054 89.5156L152.867 88.6719C153.523 88.6094 154.148 88.5 154.742 88.3438C155.351 88.1719 155.906 87.9844 156.406 87.7812C156.921 87.5625 157.375 87.3438 157.765 87.125C158.171 86.9062 158.507 86.7031 158.773 86.5156C158.476 88.875 158.25 91.0234 158.093 92.9609C157.953 94.8828 157.882 96.625 157.882 98.1875C157.882 99.4688 157.89 100.656 157.906 101.75C157.937 102.844 157.976 103.891 158.023 104.891C158.085 105.875 158.164 106.828 158.257 107.75C158.367 108.672 158.5 109.602 158.656 110.539L158.773 110.914C157.82 111.023 156.867 111.25 155.914 111.594C154.976 111.922 154.015 112.359 153.031 112.906L152.867 113C153.023 112.547 153.187 112.055 153.359 111.523C153.531 110.977 153.703 110.406 153.875 109.812L148.742 113C148.085 112.828 147.289 112.523 146.351 112.086C145.414 111.633 144.468 111.062 143.515 110.375C142.562 109.672 141.679 108.852 140.867 107.914C140.054 106.977 139.437 105.922 139.015 104.75C138.406 103.25 138.078 101.609 138.031 99.8281C137.953 97.5469 137.843 95.5547 137.703 93.8516C137.562 92.1328 137.382 90.6875 137.164 89.5156L136.976 88.6719ZM160.044 113C160.341 110.641 160.56 108.5 160.7 106.578C160.857 104.641 160.935 102.891 160.935 101.328C160.935 100.062 160.919 98.8828 160.888 97.7891C160.872 96.6797 160.833 95.6328 160.771 94.6484C160.708 93.6484 160.622 92.6875 160.513 91.7656C160.419 90.8438 160.302 89.9141 160.161 88.9766L160.044 88.6016C160.997 88.4922 161.943 88.2734 162.88 87.9453C163.833 87.6016 164.802 87.1562 165.786 86.6094L165.95 86.5156C165.794 86.9688 165.63 87.4688 165.458 88.0156C165.286 88.5469 165.115 89.1094 164.943 89.7031L170.075 86.5156C170.7 86.6875 171.474 86.9922 172.396 87.4297C173.333 87.8516 174.279 88.4141 175.232 89.1172C176.185 89.8047 177.075 90.625 177.904 91.5781C178.747 92.5156 179.38 93.5781 179.802 94.7656L175.56 96.5C174.919 95.3281 174.185 94.3438 173.357 93.5469C172.529 92.7344 171.677 92.0781 170.802 91.5781C169.927 91.0625 169.068 90.6953 168.224 90.4766C167.38 90.2422 166.622 90.125 165.95 90.125C165.622 90.125 165.294 90.1484 164.966 90.1953H164.943C164.88 90.7734 164.833 91.6953 164.802 92.9609C164.786 94.2109 164.779 95.8203 164.779 97.7891V98.6094C164.779 103 165.107 106.797 165.763 110L165.95 110.844C165.341 110.922 164.74 111.039 164.146 111.195C163.552 111.352 162.99 111.539 162.458 111.758C161.943 111.961 161.474 112.172 161.052 112.391C160.63 112.609 160.294 112.812 160.044 113ZM176.409 113C176.706 110.641 176.925 108.5 177.065 106.578C177.222 104.641 177.3 102.891 177.3 101.328C177.3 100.062 177.284 98.8828 177.253 97.7891C177.237 96.6797 177.198 95.6328 177.136 94.6484C177.073 93.6484 176.987 92.6875 176.878 91.7656C176.784 90.8438 176.667 89.9141 176.526 88.9766L176.409 88.6016C177.362 88.4922 178.308 88.2734 179.245 87.9453C180.198 87.6016 181.167 87.1562 182.151 86.6094L182.315 86.5156C182.159 86.9688 181.995 87.4688 181.823 88.0156C181.651 88.5469 181.48 89.1094 181.308 89.7031L186.44 86.5156C187.065 86.6875 187.839 86.9922 188.761 87.4297C189.698 87.8516 190.644 88.4141 191.597 89.1172C192.55 89.8047 193.44 90.625 194.269 91.5781C195.112 92.5156 195.745 93.5781 196.167 94.7656L191.925 96.5C191.284 95.3281 190.55 94.3438 189.722 93.5469C188.894 92.7344 188.042 92.0781 187.167 91.5781C186.292 91.0625 185.433 90.6953 184.589 90.4766C183.745 90.2422 182.987 90.125 182.315 90.125C181.987 90.125 181.659 90.1484 181.331 90.1953H181.308C181.245 90.7734 181.198 91.6953 181.167 92.9609C181.151 94.2109 181.144 95.8203 181.144 97.7891V98.6094C181.144 103 181.472 106.797 182.128 110L182.315 110.844C181.706 110.922 181.105 111.039 180.511 111.195C179.917 111.352 179.355 111.539 178.823 111.758C178.308 111.961 177.839 112.172 177.417 112.391C176.995 112.609 176.659 112.812 176.409 113Z" fill="url(#paint4_linear_64_137)"/>
<defs>
<linearGradient id="paint0_linear_64_137" x1="92.2543" y1="36.48" x2="145.84" y2="35.6763" gradientUnits="userSpaceOnUse">
<stop stop-color="#277FFF"/>
<stop offset="1" stop-color="#962AC3"/>
</linearGradient>
<linearGradient id="paint1_linear_64_137" x1="92.2543" y1="36.48" x2="145.84" y2="35.6763" gradientUnits="userSpaceOnUse">
<stop stop-color="#277FFF"/>
<stop offset="1" stop-color="#962AC3"/>
</linearGradient>
<linearGradient id="paint2_linear_64_137" x1="92.2543" y1="36.48" x2="145.84" y2="35.6763" gradientUnits="userSpaceOnUse">
<stop stop-color="#277FFF"/>
<stop offset="1" stop-color="#962AC3"/>
</linearGradient>
<linearGradient id="paint3_linear_64_137" x1="92.2543" y1="36.48" x2="145.84" y2="35.6763" gradientUnits="userSpaceOnUse">
<stop stop-color="#277FFF"/>
<stop offset="1" stop-color="#962AC3"/>
</linearGradient>
<linearGradient id="paint4_linear_64_137" x1="-6.60692" y1="102.78" x2="296.259" y2="72.0468" gradientUnits="userSpaceOnUse">
<stop stop-color="#277FFF"/>
<stop offset="1" stop-color="#962AC3"/>
</linearGradient>
</defs>
</svg>
